# xmcd CD database file
#
# Track frame offsets:
#	150
#	22085
#	39295
#	59355
#	76018
#	89835
#	104108
#	128643
#	149825
#	168105
#
# Disc length: 2411 seconds
#
# Revision: 0
# Processed by: cddbd v1.5.2PL0 Copyright (c) Steve Scherf et al.
# Submitted via: CDex 1.51
#
DISCID=8809690a
DTITLE=Various Artist - Southern Ground Records Presents
DYEAR=2009
DGENRE=Country
TTITLE0=Whenever we breakdown - Levi Lowery
TTITLE1=Money - Nic Cowan
TTITLE2=Poem - Sonia Leigh
TTITLE3=Whiskey and Wine - Levi Lowery
TTITLE4=Mary Jane - Nic Cowan
TTITLE5=Black Rubber Bands - Sonia Leigh
TTITLE6=Something More - Levi Lowery
TTITLE7=She Took It From Me - Nic Cowan
TTITLE8=Frozen Bed - Sonia Leigh
TTITLE9=Whiskey's Gone - Zac Brown Band
EXTD=YEAR: 2009
EXTT0=
EXTT1=
EXTT2=
EXTT3=
EXTT4=
EXTT5=
EXTT6=
EXTT7=
EXTT8=
EXTT9=
PLAYORDER=
